<svg width="491" height="347" viewBox="0 0 491 347" fill="none" xmlns="http://www.w3.org/2000/svg">
<path d="M296.644 147.572L382.388 158.505L375.869 208.47L290.124 197.538L296.644 147.572Z" fill="white"/>
<path d="M375.944 208.971C376.028 208.957 376.107 208.921 376.174 208.868C376.275 208.782 376.344 208.665 376.369 208.535L382.888 158.57C382.905 158.436 382.869 158.302 382.786 158.196C382.704 158.089 382.583 158.02 382.449 158.002L296.699 147.027C296.565 147.01 296.43 147.046 296.323 147.128C296.216 147.21 296.146 147.331 296.128 147.464L289.609 197.429C289.592 197.492 289.588 197.557 289.598 197.621C289.608 197.685 289.632 197.746 289.668 197.8C289.706 197.855 289.755 197.901 289.813 197.934C289.871 197.968 289.935 197.988 290.002 197.993L375.752 208.968L375.944 208.971ZM381.812 158.942L375.426 207.902L290.681 197.103L297.077 148.129L381.812 158.942Z" fill="#231F20"/>
<path d="M335.387 185.736C335.446 185.737 335.506 185.728 335.562 185.708L382.633 158.945C382.696 158.916 382.753 158.873 382.799 158.82C382.845 158.768 382.88 158.706 382.901 158.64C382.923 158.573 382.93 158.503 382.923 158.434C382.916 158.364 382.894 158.297 382.86 158.237C382.825 158.176 382.779 158.123 382.723 158.081C382.667 158.039 382.603 158.009 382.535 157.993C382.466 157.976 382.396 157.974 382.327 157.986C382.258 157.999 382.192 158.025 382.133 158.064L335.389 184.618L296.986 147.205C296.887 147.129 296.763 147.092 296.638 147.102C296.513 147.111 296.395 147.166 296.308 147.256C296.221 147.345 296.17 147.464 296.165 147.588C296.16 147.713 296.202 147.835 296.281 147.931L334.95 185.604C335.007 185.659 335.077 185.699 335.153 185.722C335.228 185.744 335.309 185.749 335.387 185.736Z" fill="#231F20"/>
<path d="M290.241 197.586C290.301 197.587 290.36 197.578 290.416 197.558L326.627 176.99C326.684 176.957 326.735 176.914 326.775 176.862C326.816 176.81 326.846 176.75 326.864 176.687C326.881 176.623 326.886 176.557 326.878 176.491C326.87 176.426 326.849 176.363 326.816 176.306C326.783 176.249 326.74 176.199 326.687 176.158C326.635 176.118 326.575 176.088 326.512 176.071C326.448 176.053 326.381 176.049 326.316 176.057C326.25 176.065 326.186 176.086 326.129 176.119L289.864 196.696C289.805 196.726 289.753 196.768 289.71 196.82C289.668 196.871 289.637 196.93 289.619 196.994C289.601 197.057 289.596 197.124 289.604 197.19C289.612 197.255 289.634 197.318 289.668 197.375C289.727 197.468 289.815 197.54 289.918 197.578C290.022 197.616 290.135 197.619 290.241 197.586V197.586Z" fill="#231F20"/>
<path d="M376.024 208.556C376.135 208.543 376.238 208.491 376.315 208.41C376.408 208.315 376.458 208.188 376.456 208.056C376.454 207.924 376.4 207.799 376.305 207.707L346.564 178.709C346.517 178.663 346.461 178.626 346.4 178.602C346.339 178.577 346.273 178.565 346.207 178.566C346.141 178.566 346.075 178.58 346.014 178.606C345.954 178.631 345.898 178.669 345.852 178.716C345.806 178.763 345.769 178.818 345.744 178.879C345.719 178.94 345.707 179.006 345.707 179.072C345.708 179.137 345.721 179.202 345.747 179.263C345.773 179.324 345.811 179.378 345.858 179.425L375.564 208.417C375.622 208.478 375.695 208.523 375.775 208.547C375.856 208.572 375.942 208.575 376.024 208.556V208.556Z" fill="#231F20"/>
<path d="M278.549 139.643L346.045 85.7674L377.691 125.038L310.195 178.914L278.549 139.643Z" fill="white"/>
<path d="M310.278 179.406C310.367 179.393 310.45 179.356 310.52 179.301L378.008 125.424C378.061 125.384 378.105 125.334 378.139 125.277C378.172 125.22 378.194 125.157 378.202 125.091C378.232 124.961 378.211 124.824 378.142 124.71L346.446 85.4487C346.36 85.3458 346.236 85.2804 346.102 85.2663C345.968 85.2522 345.833 85.2904 345.726 85.373L278.238 139.25C278.186 139.291 278.143 139.342 278.11 139.399C278.078 139.457 278.057 139.521 278.05 139.587C278.043 139.652 278.049 139.719 278.067 139.782C278.086 139.845 278.117 139.904 278.159 139.956L309.8 179.225C309.886 179.33 310.01 179.399 310.145 179.416L310.278 179.406ZM376.923 124.959L310.223 178.208L279.214 139.732L345.969 86.4745L376.923 124.959Z" fill="#231F20"/>
<path d="M332.779 138.516C332.876 138.498 332.967 138.454 333.04 138.387C333.113 138.319 333.165 138.233 333.191 138.138L346.539 85.8922C346.571 85.7625 346.551 85.6255 346.482 85.5109C346.413 85.3963 346.302 85.3133 346.172 85.2799C346.108 85.2626 346.04 85.2585 345.974 85.2676C345.908 85.2768 345.844 85.2991 345.787 85.3333C345.729 85.3674 345.679 85.4127 345.64 85.4664C345.6 85.5201 345.572 85.5811 345.556 85.6459L332.295 137.52L278.482 139.156C278.415 139.155 278.349 139.168 278.288 139.194C278.226 139.22 278.171 139.259 278.124 139.307C278.078 139.355 278.043 139.412 278.02 139.474C277.997 139.537 277.987 139.603 277.99 139.669C277.991 139.735 278.006 139.801 278.032 139.861C278.059 139.921 278.097 139.976 278.145 140.021C278.193 140.067 278.25 140.102 278.312 140.126C278.374 140.149 278.44 140.16 278.506 140.158L332.656 138.524L332.779 138.516Z" fill="#231F20"/>
<path d="M310.015 179.09C310.113 179.074 310.204 179.03 310.278 178.962C310.351 178.895 310.403 178.808 310.427 178.712L320.698 138.511C320.73 138.382 320.71 138.245 320.641 138.13C320.573 138.016 320.461 137.933 320.331 137.899C320.201 137.867 320.063 137.888 319.948 137.957C319.833 138.025 319.749 138.136 319.715 138.265L309.444 178.466C309.412 178.595 309.432 178.732 309.501 178.847C309.569 178.962 309.681 179.045 309.811 179.078C309.877 179.098 309.947 179.103 310.015 179.09V179.09Z" fill="#231F20"/>
<path d="M377.514 125.212C377.634 125.184 377.741 125.114 377.814 125.014C377.886 124.915 377.92 124.792 377.909 124.67C377.898 124.547 377.842 124.433 377.753 124.348C377.663 124.263 377.546 124.214 377.422 124.209L335.762 125.458C335.696 125.459 335.631 125.473 335.57 125.5C335.509 125.526 335.454 125.564 335.408 125.612C335.363 125.66 335.327 125.717 335.303 125.778C335.28 125.84 335.269 125.906 335.271 125.972C335.276 126.105 335.332 126.232 335.429 126.325C335.525 126.418 335.654 126.47 335.788 126.471L377.402 125.218L377.514 125.212Z" fill="#231F20"/>
<path d="M149.837 145.149L262.481 127.267L276.399 214.939L134.238 237.506L124.622 176.936C122.25 161.99 133.539 147.736 149.837 145.149Z" fill="#68E1FD"/>
<path d="M134.314 237.986L276.486 215.417C276.617 215.393 276.734 215.319 276.811 215.21C276.889 215.102 276.92 214.968 276.899 214.837L262.985 127.187C262.965 127.057 262.893 126.94 262.786 126.863C262.679 126.785 262.545 126.754 262.414 126.774L149.759 144.658C133.209 147.286 121.706 161.819 124.123 177.049L133.733 237.586C133.762 237.713 133.837 237.825 133.945 237.899C134.052 237.973 134.184 238.004 134.314 237.986V237.986ZM275.837 214.514L134.662 236.925L125.126 176.856C122.795 162.172 133.909 148.158 149.912 145.617L262.073 127.812L275.837 214.514Z" fill="#231F20"/>
<path d="M305.916 210.253L246.892 219.623L255.151 271.646C256.277 278.741 260.191 285.096 266.032 289.312C271.873 293.529 279.162 295.261 286.296 294.129L291.535 293.297C298.668 292.165 305.063 288.26 309.31 282.442C313.558 276.624 315.312 269.37 314.186 262.274L305.927 210.251L305.916 210.253Z" fill="white"/>
<path d="M286.375 294.63L291.603 293.8C298.871 292.647 305.385 288.669 309.712 282.742C314.04 276.815 315.826 269.424 314.679 262.196L306.42 210.173C306.396 210.041 306.322 209.924 306.214 209.845C306.105 209.767 305.97 209.733 305.836 209.751L246.813 219.121C246.68 219.145 246.562 219.219 246.483 219.327C246.404 219.436 246.37 219.57 246.388 219.703L254.647 271.726C255.794 278.954 259.782 285.428 265.732 289.724C271.682 294.019 279.108 295.784 286.375 294.63V294.63ZM305.488 210.813L313.667 262.334C314.766 269.296 313.043 276.411 308.876 282.119C304.709 287.826 298.438 291.659 291.441 292.775L286.212 293.605C279.22 294.704 272.08 293 266.356 288.868C260.632 284.737 256.792 278.513 255.677 271.562L247.495 220.019L305.488 210.813Z" fill="#231F20"/>
<path d="M269.389 264.926L298.555 260.296C298.701 260.273 298.831 260.193 298.918 260.075C299.004 259.956 299.04 259.809 299.017 259.664C298.994 259.519 298.914 259.39 298.795 259.304C298.676 259.218 298.528 259.183 298.382 259.206L269.216 263.836C269.07 263.859 268.94 263.939 268.854 264.057C268.767 264.176 268.731 264.324 268.754 264.468C268.777 264.613 268.857 264.742 268.976 264.828C269.095 264.914 269.244 264.949 269.389 264.926Z" fill="#D1D3D4"/>
<path d="M208.289 181.09C205.172 181.585 202.245 179.472 201.753 176.371C201.261 173.271 203.389 170.356 206.507 169.861C209.624 169.366 212.55 171.478 213.043 174.579C213.535 177.68 211.407 180.595 208.289 181.09Z" fill="white"/>
<path d="M208.367 181.58C209.584 181.389 210.718 180.843 211.624 180.011C212.531 179.179 213.169 178.099 213.458 176.907C213.748 175.715 213.675 174.464 213.249 173.315C212.824 172.165 212.065 171.167 211.069 170.448C210.072 169.728 208.883 169.32 207.652 169.274C206.42 169.228 205.203 169.546 204.152 170.189C203.102 170.831 202.266 171.769 201.752 172.884C201.237 173.999 201.066 175.239 201.26 176.45C201.52 178.067 202.413 179.516 203.746 180.477C205.078 181.439 206.74 181.836 208.367 181.58V181.58ZM206.586 170.362C207.603 170.201 208.644 170.343 209.579 170.771C210.514 171.198 211.299 171.892 211.837 172.765C212.374 173.637 212.639 174.649 212.598 175.672C212.557 176.696 212.212 177.684 211.607 178.514C211.001 179.343 210.163 179.975 209.197 180.331C208.231 180.686 207.181 180.749 206.181 180.511C205.18 180.273 204.273 179.746 203.575 178.994C202.876 178.243 202.418 177.303 202.257 176.291C202.151 175.62 202.178 174.934 202.338 174.273C202.498 173.611 202.787 172.987 203.189 172.437C203.591 171.886 204.098 171.42 204.681 171.064C205.264 170.708 205.911 170.47 206.586 170.362V170.362Z" fill="#231F20"/>
<path d="M206.586 170.362C206.719 170.338 206.837 170.265 206.916 170.156C206.995 170.048 207.029 169.913 207.011 169.781L196.046 100.707C196.022 100.577 195.948 100.461 195.839 100.384C195.73 100.307 195.595 100.276 195.464 100.297C195.333 100.318 195.215 100.389 195.138 100.496C195.06 100.603 195.028 100.736 195.048 100.866L206.013 169.939C206.034 170.07 206.106 170.188 206.213 170.267C206.32 170.346 206.454 170.38 206.586 170.362V170.362Z" fill="#231F20"/>
<path d="M175.622 109.303L197.845 115.298L195.541 100.787L174.793 104.081L175.622 109.303Z" fill="white"/>
<path d="M197.931 115.843C198.036 115.826 198.134 115.779 198.213 115.709C198.285 115.648 198.338 115.571 198.37 115.483C198.401 115.396 198.409 115.302 198.393 115.211L196.089 100.7C196.066 100.556 195.987 100.426 195.868 100.34C195.749 100.255 195.6 100.219 195.455 100.242L174.706 103.536C174.562 103.562 174.434 103.642 174.348 103.76C174.261 103.878 174.225 104.024 174.245 104.168L175.072 109.379C175.09 109.485 175.138 109.584 175.21 109.663C175.282 109.743 175.376 109.8 175.48 109.829L197.703 115.823C197.777 115.847 197.855 115.853 197.931 115.843V115.843ZM195.08 101.419L197.157 114.502L176.107 108.824L175.415 104.463L195.08 101.419Z" fill="#231F20"/>
<path d="M203.4 226.527L227.185 222.751L228.081 228.398L204.296 232.174L203.4 226.527Z" fill="white"/>
<path d="M204.374 232.665L228.159 228.889C228.291 228.868 228.41 228.797 228.489 228.69C228.569 228.583 228.603 228.45 228.586 228.318L227.689 222.671C227.665 222.539 227.591 222.422 227.482 222.344C227.374 222.265 227.239 222.231 227.105 222.25L203.32 226.026C203.188 226.049 203.07 226.123 202.991 226.232C202.912 226.34 202.878 226.474 202.896 226.607L203.792 232.254C203.816 232.385 203.89 232.501 203.999 232.578C204.108 232.654 204.242 232.686 204.374 232.665ZM227.498 227.977L204.721 231.593L203.98 226.927L226.757 223.311L227.498 227.977Z" fill="#231F20"/>
<path d="M236.801 308.032L224.256 229.006L209.941 231.278L222.487 310.305" fill="white"/>
<path d="M222.577 310.804C222.709 310.781 222.825 310.707 222.903 310.598C222.98 310.49 223.012 310.356 222.991 310.225L210.53 231.732L223.848 229.618L236.308 308.111C236.309 308.184 236.325 308.256 236.356 308.322C236.388 308.388 236.433 308.446 236.489 308.493C236.545 308.54 236.61 308.575 236.681 308.594C236.752 308.614 236.826 308.618 236.898 308.607C236.971 308.595 237.04 308.568 237.101 308.528C237.162 308.487 237.214 308.434 237.252 308.372C237.291 308.31 237.316 308.24 237.325 308.168C237.334 308.095 237.328 308.022 237.306 307.952L224.76 228.926C224.751 228.859 224.729 228.795 224.694 228.737C224.66 228.68 224.614 228.63 224.559 228.591C224.505 228.551 224.442 228.523 224.377 228.508C224.311 228.493 224.243 228.492 224.176 228.504L209.873 230.775C209.806 230.784 209.741 230.806 209.684 230.841C209.626 230.875 209.575 230.921 209.536 230.975C209.496 231.03 209.468 231.092 209.453 231.157C209.438 231.222 209.436 231.29 209.448 231.356L221.993 310.383C222.014 310.516 222.088 310.635 222.197 310.714C222.307 310.793 222.443 310.826 222.577 310.804V310.804Z" fill="#231F20"/>
<path d="M248.069 162.056L248.228 162.422L252.714 172.696L257.142 182.823L258.568 186.073L262.08 194.11L268.066 207.823L268.084 207.865L268.242 208.22L317.948 186.661L321.145 185.281L333.393 179.973L347.542 173.826L347.379 173.438L327.381 127.66L314.208 133.372L301.055 139.07L285.95 145.637L255.018 159.041L248.153 162.02L248.069 162.056Z" fill="white"/>
<path d="M268.321 208.722L268.442 208.702L347.753 174.307C347.875 174.25 347.971 174.15 348.02 174.025C348.07 173.901 348.069 173.762 348.018 173.639L347.844 173.253L327.855 127.462C327.795 127.343 327.697 127.249 327.576 127.193C327.512 127.176 327.444 127.172 327.378 127.183C327.312 127.193 327.249 127.218 327.193 127.254L247.965 161.614C247.83 161.673 247.719 161.778 247.653 161.91C247.583 162.035 247.566 162.182 247.605 162.319L261.617 194.306L267.778 208.417C267.82 208.521 267.897 208.608 267.996 208.664C268.094 208.719 268.209 208.74 268.321 208.722V208.722ZM346.873 173.575L268.497 207.565L248.718 162.322L327.125 128.315L346.873 173.575Z" fill="#231F20"/>
<path d="M300.798 175.111C300.874 175.099 300.946 175.071 301.009 175.028C301.072 174.985 301.125 174.928 301.163 174.863L327.826 127.914C327.882 127.797 327.893 127.664 327.854 127.54C327.815 127.417 327.73 127.313 327.617 127.249C327.504 127.186 327.37 127.168 327.244 127.199C327.118 127.231 327.008 127.309 326.938 127.417L300.478 174.088L248.19 161.612C248.061 161.587 247.926 161.613 247.816 161.684C247.705 161.755 247.626 161.866 247.595 161.994C247.565 162.121 247.585 162.255 247.652 162.368C247.718 162.481 247.826 162.564 247.953 162.6L300.615 175.162C300.679 175.156 300.741 175.139 300.798 175.111V175.111Z" fill="#231F20"/>
<path d="M268.115 208.341C268.188 208.328 268.258 208.299 268.319 208.257C268.38 208.214 268.431 208.159 268.469 208.095L289.016 171.963C289.073 171.846 289.083 171.713 289.045 171.589C289.006 171.466 288.921 171.362 288.808 171.299C288.695 171.235 288.561 171.217 288.435 171.249C288.309 171.28 288.199 171.358 288.129 171.467L267.625 207.591C267.591 207.65 267.569 207.714 267.56 207.78C267.551 207.847 267.556 207.914 267.573 207.979C267.591 208.044 267.621 208.105 267.663 208.158C267.704 208.211 267.755 208.255 267.814 208.288C267.908 208.332 268.011 208.35 268.115 208.341V208.341Z" fill="#231F20"/>
<path d="M347.464 173.972C347.581 173.956 347.688 173.9 347.766 173.813C347.845 173.726 347.891 173.614 347.895 173.498C347.899 173.381 347.862 173.266 347.79 173.174C347.718 173.082 347.615 173.019 347.5 172.994L307.033 163.28C306.967 163.261 306.897 163.256 306.829 163.265C306.761 163.274 306.695 163.296 306.636 163.331C306.577 163.366 306.525 163.412 306.484 163.467C306.443 163.522 306.414 163.585 306.398 163.652C306.382 163.718 306.38 163.787 306.391 163.855C306.403 163.922 306.428 163.987 306.465 164.044C306.502 164.102 306.551 164.151 306.608 164.189C306.665 164.228 306.729 164.254 306.796 164.267L347.3 173.931C347.353 173.952 347.408 173.966 347.464 173.972V173.972Z" fill="#231F20"/>
<path d="M237.45 160.143L241.901 188.182L243.528 187.6L255.696 183.131L268.064 178.575L279.685 174.338L292.607 169.593L295.187 168.647L295.866 168.394L299.049 167.207L311.79 162.524L315.719 161.085L311.319 149.154L307.955 140.065L298.251 113.832L261.089 127.488L251.031 131.163C247.647 133.191 244.718 135.89 242.427 139.092C240.136 142.294 238.532 145.93 237.714 149.774C237.466 150.906 237.295 152.053 237.203 153.208L237.104 153.224L237.167 153.616C237.005 155.796 237.1 157.986 237.45 160.143V160.143Z" fill="white"/>
<path d="M241.986 188.716L242.074 188.702L243.7 188.12L315.963 161.56C316.089 161.511 316.19 161.414 316.246 161.292C316.277 161.233 316.295 161.168 316.298 161.102C316.301 161.036 316.29 160.97 316.264 160.909L298.796 113.656C298.749 113.53 298.653 113.428 298.531 113.372C298.408 113.316 298.268 113.311 298.142 113.358L250.861 130.732C247.402 132.786 244.404 135.528 242.056 138.785C239.708 142.043 238.059 145.746 237.214 149.663C236.982 150.748 236.815 151.846 236.713 152.95C236.634 153.05 236.598 153.176 236.611 153.302L236.663 153.629C236.494 155.827 236.585 158.037 236.933 160.214L241.384 188.253C241.395 188.327 241.423 188.397 241.465 188.458C241.508 188.52 241.565 188.57 241.631 188.605C241.73 188.687 241.858 188.727 241.986 188.716V188.716ZM315.087 160.783L242.337 187.532L237.976 160.059C237.639 157.937 237.553 155.783 237.721 153.64C237.72 153.595 237.713 153.552 237.7 153.509L237.683 153.4C237.708 153.347 237.725 153.292 237.736 153.235C237.824 152.108 237.988 150.988 238.226 149.883C239.028 146.105 240.604 142.532 242.856 139.386C245.107 136.24 247.987 133.589 251.314 131.599L298.032 114.437L315.087 160.783Z" fill="#231F20"/>
<path d="M269.078 159.693C269.15 159.683 269.219 159.657 269.281 159.618C269.342 159.58 269.395 159.529 269.436 159.469L298.741 114.089C298.776 114.034 298.801 113.972 298.812 113.907C298.823 113.842 298.822 113.776 298.808 113.712C298.793 113.648 298.766 113.587 298.728 113.533C298.69 113.48 298.642 113.434 298.586 113.399C298.531 113.364 298.468 113.34 298.403 113.328C298.338 113.317 298.272 113.319 298.207 113.333C298.143 113.348 298.082 113.374 298.027 113.412C297.973 113.45 297.927 113.498 297.892 113.554L268.781 158.6L237.868 149.325C237.738 149.29 237.599 149.305 237.48 149.367C237.36 149.43 237.269 149.535 237.225 149.662C237.187 149.792 237.203 149.932 237.268 150.051C237.333 150.171 237.442 150.259 237.573 150.299L268.854 159.628C268.923 159.667 268.999 159.689 269.078 159.693Z" fill="#231F20"/>
<path d="M240.816 181.347C240.887 181.333 240.954 181.306 241.013 181.266C241.072 181.225 241.123 181.173 241.161 181.113L257.467 155.848C257.522 155.736 257.534 155.608 257.5 155.488C257.467 155.369 257.391 155.265 257.286 155.198C257.181 155.131 257.055 155.104 256.931 155.123C256.808 155.142 256.696 155.205 256.616 155.301L240.307 180.545C240.268 180.598 240.239 180.658 240.224 180.722C240.208 180.785 240.205 180.852 240.216 180.917C240.226 180.982 240.249 181.044 240.284 181.1C240.318 181.156 240.364 181.204 240.417 181.242C240.473 181.286 240.537 181.317 240.606 181.335C240.674 181.353 240.746 181.357 240.816 181.347V181.347Z" fill="#231F20"/>
<path d="M315.691 161.19C315.785 161.175 315.873 161.134 315.945 161.071C316.017 161.008 316.069 160.926 316.095 160.835C316.133 160.707 316.12 160.57 316.057 160.452C315.994 160.335 315.887 160.247 315.759 160.207L275.881 148.253C275.815 148.223 275.743 148.207 275.67 148.207C275.598 148.208 275.526 148.223 275.46 148.253C275.394 148.283 275.335 148.326 275.287 148.38C275.239 148.435 275.203 148.498 275.182 148.567C275.16 148.636 275.154 148.709 275.163 148.781C275.173 148.852 275.197 148.921 275.235 148.983C275.273 149.044 275.324 149.097 275.384 149.137C275.445 149.177 275.513 149.204 275.584 149.216L315.496 161.165C315.558 161.189 315.625 161.197 315.691 161.19V161.19Z" fill="#231F20"/>
<path d="M238.183 164.832L310.404 153.367L318.301 203.112L246.08 214.577L238.183 164.832Z" fill="white"/>
<path d="M246.171 215.077L318.38 203.614C318.513 203.59 318.631 203.516 318.71 203.408C318.789 203.299 318.823 203.165 318.805 203.032L310.908 153.287C310.887 153.154 310.813 153.035 310.704 152.956C310.594 152.877 310.458 152.845 310.324 152.866L238.115 164.329C238.048 164.338 237.983 164.361 237.925 164.395C237.868 164.43 237.817 164.475 237.778 164.53C237.738 164.584 237.71 164.646 237.695 164.711C237.68 164.777 237.678 164.845 237.69 164.911L245.587 214.655C245.597 214.721 245.621 214.784 245.656 214.841C245.691 214.898 245.737 214.947 245.791 214.986C245.845 215.026 245.906 215.054 245.972 215.069C246.037 215.085 246.104 215.087 246.171 215.077ZM317.728 202.689L246.483 213.999L238.743 165.246L309.988 153.936L317.728 202.689Z" fill="#231F20"/>
<path d="M272.879 192.697C272.99 192.681 273.092 192.629 273.17 192.551L310.829 153.713C310.89 153.648 310.931 153.568 310.95 153.482C310.975 153.417 310.984 153.346 310.974 153.277C310.965 153.21 310.942 153.147 310.908 153.089C310.873 153.031 310.827 152.981 310.773 152.942C310.718 152.903 310.656 152.875 310.59 152.86C310.524 152.845 310.456 152.843 310.39 152.856V152.856C310.32 152.867 310.253 152.893 310.194 152.931C310.134 152.97 310.083 153.02 310.043 153.078L272.767 191.564L239.996 174.268C239.937 174.228 239.869 174.2 239.799 174.187C239.728 174.174 239.655 174.176 239.585 174.194C239.515 174.211 239.45 174.242 239.393 174.286C239.336 174.33 239.289 174.386 239.256 174.449C239.222 174.512 239.202 174.582 239.197 174.653C239.192 174.725 239.202 174.796 239.227 174.863C239.252 174.93 239.291 174.991 239.341 175.043C239.392 175.094 239.452 175.134 239.519 175.16L272.566 192.635C272.661 192.689 272.771 192.711 272.879 192.697V192.697Z" fill="#231F20"/>
<path d="M244.532 204.753C244.638 204.735 244.736 204.684 244.812 204.608L262.198 186.715C262.291 186.618 262.342 186.489 262.339 186.355C262.337 186.222 262.282 186.095 262.186 186.001C262.139 185.954 262.082 185.917 262.02 185.893C261.958 185.868 261.892 185.856 261.825 185.857C261.758 185.858 261.692 185.873 261.631 185.9C261.57 185.927 261.515 185.966 261.469 186.015L244.138 203.899C244.067 203.976 244.021 204.073 244.008 204.177C243.994 204.281 244.013 204.387 244.062 204.479C244.112 204.572 244.188 204.647 244.282 204.694C244.376 204.742 244.482 204.759 244.587 204.744L244.532 204.753Z" fill="#231F20"/>
<path d="M318.324 203.187C318.426 203.167 318.52 203.116 318.593 203.041C318.666 202.967 318.714 202.872 318.73 202.769C318.747 202.667 318.732 202.561 318.687 202.468C318.642 202.374 318.569 202.297 318.478 202.246L281.679 182.795C281.562 182.75 281.433 182.748 281.315 182.792C281.198 182.835 281.1 182.92 281.041 183.03C280.983 183.14 280.966 183.268 280.996 183.389C281.026 183.51 281.099 183.616 281.202 183.687L318.001 203.137C318.101 203.186 318.214 203.203 318.324 203.187Z" fill="#231F20"/>
<path d="M270.231 164.243L353.062 188.777L338.54 237.059L255.708 212.524L270.231 164.243Z" fill="white"/>
<path d="M338.637 237.571C338.731 237.555 338.819 237.513 338.89 237.451C338.962 237.388 339.014 237.307 339.042 237.216L353.558 188.931C353.588 188.801 353.567 188.665 353.498 188.55C353.432 188.435 353.326 188.349 353.201 188.306L270.368 163.78C270.238 163.743 270.099 163.759 269.981 163.824C269.863 163.889 269.775 163.997 269.737 164.126L255.273 212.391C255.243 212.521 255.265 212.658 255.334 212.773C255.365 212.831 255.407 212.882 255.458 212.924C255.509 212.966 255.568 212.997 255.631 213.016L338.409 237.551C338.483 237.574 338.561 237.58 338.637 237.571ZM352.444 189.131L338.222 236.441L256.366 212.195L270.586 164.941L352.444 189.131Z" fill="#231F20"/>
<path d="M302.379 208.143L302.477 208.128L353.253 189.271C353.315 189.249 353.372 189.215 353.422 189.17C353.471 189.126 353.51 189.073 353.539 189.013C353.567 188.954 353.583 188.889 353.586 188.823C353.589 188.758 353.578 188.692 353.556 188.63C353.534 188.567 353.499 188.509 353.454 188.459C353.408 188.41 353.354 188.37 353.293 188.342C353.232 188.314 353.165 188.299 353.098 188.297C353.031 188.295 352.964 188.307 352.901 188.332L302.486 207.053L270.645 163.971C270.559 163.882 270.444 163.827 270.32 163.817C270.197 163.806 270.073 163.841 269.973 163.914C269.874 163.988 269.804 164.095 269.777 164.215C269.751 164.336 269.77 164.462 269.83 164.57L301.888 207.953C301.943 208.027 302.019 208.084 302.106 208.118C302.192 208.151 302.287 208.16 302.379 208.143V208.143Z" fill="#231F20"/>
<path d="M255.921 212.646L256.019 212.63L295.08 198.125C295.206 198.078 295.309 197.983 295.366 197.861C295.422 197.739 295.428 197.6 295.381 197.474C295.359 197.411 295.324 197.353 295.279 197.303C295.234 197.254 295.179 197.214 295.118 197.186C295.057 197.158 294.991 197.143 294.924 197.141C294.856 197.139 294.789 197.151 294.727 197.176L255.666 211.68C255.549 211.725 255.452 211.812 255.395 211.923C255.337 212.034 255.323 212.163 255.355 212.283C255.386 212.404 255.462 212.509 255.566 212.578C255.671 212.647 255.798 212.675 255.922 212.657L255.921 212.646Z" fill="#231F20"/>
<path d="M338.754 237.172C338.833 237.157 338.908 237.126 338.975 237.081C339.03 237.042 339.076 236.992 339.111 236.935C339.146 236.878 339.169 236.815 339.18 236.749C339.19 236.683 339.187 236.615 339.171 236.55C339.155 236.486 339.127 236.424 339.087 236.371L314.461 202.995C314.38 202.888 314.26 202.817 314.127 202.797C313.994 202.776 313.858 202.808 313.747 202.885C313.64 202.966 313.568 203.086 313.547 203.218C313.527 203.351 313.558 203.486 313.635 203.596L338.305 236.964C338.355 237.035 338.423 237.091 338.502 237.128C338.58 237.164 338.667 237.179 338.754 237.172V237.172Z" fill="#231F20"/>
<path d="M226.215 241.346L213.563 254.095L209.941 231.278L224.256 229.006L226.215 241.346Z" fill="#231F20"/>
<path d="M213.661 254.639C213.775 254.621 213.88 254.57 213.963 254.49L226.626 241.739C226.685 241.677 226.729 241.603 226.755 241.521C226.781 241.439 226.788 241.353 226.776 241.268L224.815 228.917C224.792 228.772 224.712 228.643 224.593 228.557C224.474 228.471 224.326 228.436 224.18 228.459L209.866 230.731C209.72 230.754 209.59 230.834 209.503 230.952C209.417 231.071 209.381 231.219 209.404 231.363L213.026 254.181C213.04 254.282 213.082 254.378 213.148 254.456C213.215 254.535 213.302 254.593 213.4 254.624C213.484 254.651 213.574 254.656 213.661 254.639V254.639ZM225.635 241.159L213.953 252.938L210.587 231.734L223.794 229.638L225.635 241.159Z" fill="#231F20"/>
</svg>
