<svg width="545" height="557" viewBox="0 0 545 557" fill="none" xmlns="http://www.w3.org/2000/svg">
<g clip-path="url(#clip0_1_88)">
<path opacity="0.24" d="M69.8992 575.118C56.5575 539.835 57.4132 500.859 60.9658 463.295C63.17 440.049 66.6189 416.039 79.1178 396.318C114.255 341.002 199.958 344.954 246.298 298.605C273.915 270.967 284.067 228.544 314.471 204.016C335.32 187.171 362.665 181.288 388.921 175.898L560.69 140.615C583.406 135.95 607.808 131.441 629.11 140.615C649.635 149.426 662.938 169.043 678.069 185.473C690.801 199.299 705.699 211.712 714.191 228.466C738.243 275.956 701.641 333.007 709.757 385.602C715.579 423.412 743.39 453.331 765.717 484.403C788.044 515.475 806.144 556.226 790.183 591.004C780.122 612.902 758.093 627.44 734.936 634.191C711.78 640.942 687.288 640.929 663.171 640.864L399.682 640.281C316.274 640.1 230.116 646.099 147.538 643.274C111.117 641.979 82.0092 607.123 69.8992 575.118Z" fill="#68E1FD"/>
<path d="M152.724 641.784V591.25H157.716V552.909H162.708V547.946H167.285V544.525L171.758 539.342H191.077L195.55 544.525V547.946H199.634V552.909H204.626L204.483 571.438H209.086V482.316H205.702V479.958H210.785V454.691H212.807V446.761H214.635V439.181H216.464V431.588H218.383V424.008H220.742V416.428H222.778V408.848H224.71V401.267H225.54L227.044 371.232L228.535 401.267H229.416V408.848H231.348V416.428H233.384V424.008H235.744V431.588H237.663V439.181H239.491V446.761H241.319V454.717H243.303V479.984H248.489V482.342H245.118V571.594H248.139V521.837H254.622V515.138H259.147C259.147 515.138 258.421 506.573 274.874 504.772V360.607L290.731 358.663V351.666H298.174V343.607L304.384 343.801L306.977 310.591L309.57 343.801L315.21 343.607V351.666H322.912V357.938L339.119 360.607V503.968H345.965L346.523 509.255L349.116 510.071V482.135H351.437V454.808H355.119V435.566H356.117V430.383H358.607V425.083H361.589V420.639H364.714V417.231H367.397V414.64H369.252V395.592H371.404V389.334L374.101 389.67L375.553 336.972L377.057 389.645L379.754 389.308L379.637 395.566H381.906V414.627L383.747 414.691V417.283H386.431V420.691H389.569V425.135H392.538V430.448H394.859V435.631H396.155V454.613H400.045V482.161H401.938V585.821H403.987V582.97H407.708V580.495H414.865V531.257L426.469 521.979L449.924 531.257V572.591H453.749V569.611H467.791V573.11H471.499V576.038H475.7V579.588H478.293V641.784H152.724Z" fill="#68E1FD"/>
<path d="M152.724 641.784V591.25H157.716V552.909H162.708V547.946H167.285V544.525L171.758 539.342H191.077L195.55 544.525V547.946H199.634V552.909H204.626L204.483 571.438H209.086V482.316H205.702V479.958H210.785V454.691H212.807V446.761H214.635V439.181H216.464V431.588H218.383V424.008H220.742V416.428H222.778V408.848H224.71V401.267H225.54L227.044 371.232L228.535 401.267H229.416V408.848H231.348V416.428H233.384V424.008H235.744V431.588H237.663V439.181H239.491V446.761H241.319V454.717H243.303V479.984H248.489V482.342H245.118V571.594H248.139V521.837H254.622V515.138H259.147C259.147 515.138 258.421 506.573 274.874 504.772V360.607L290.731 358.663V351.666H298.174V343.607L304.384 343.801L306.977 310.591L309.57 343.801L315.21 343.607V351.666H322.912V357.938L339.119 360.607V503.968H345.965L346.523 509.255L349.116 510.071V482.135H351.437V454.808H355.119V435.566H356.117V430.383H358.607V425.083H361.589V420.639H364.714V417.231H367.397V414.64H369.252V395.592H371.404V389.334L374.101 389.67L375.553 336.972L377.057 389.645L379.754 389.308L379.637 395.566H381.906V414.627L383.747 414.691V417.283H386.431V420.691H389.569V425.135H392.538V430.448H394.859V435.631H396.155V454.613H400.045V482.161H401.938V585.821H403.987V582.97H407.708V580.495H414.865V531.257L426.469 521.979L449.924 531.257V572.591H453.749V569.611H467.791V573.11H471.499V576.038H475.7V579.588H478.293V641.784H152.724Z" fill="url(#paint0_linear_1_88)"/>
<path d="M442.339 641.784V608.095H445.658V582.698H448.978V579.394H452.051V577.126L455.02 573.641H467.869L470.838 577.126V579.394H473.561V582.698H476.88L476.789 595.021H479.836V535.766H477.593V534.237H480.977V517.392H482.274V512.119H483.492V507.026H484.698V501.986H485.995V496.946H487.564V491.905H488.86V486.865H490.157V481.824H490.714L491.713 461.857L492.711 481.824H493.294V486.865H494.591V491.905H495.888V496.946H497.456V501.986H498.753V507.026H500.024V512.08H501.32V517.392H502.617V534.237H506.001V535.805H503.758V595.137H505.755V562.031H510.085V557.561H513.093C513.093 557.561 512.613 551.859 523.556 550.68V454.795L534.098 453.499V448.834H539.038V443.535L543.174 443.664L544.937 421.637L546.687 443.664L550.434 443.535V448.899H555.556V453.059L566.278 454.86V550.162H570.829L571.192 553.673L572.917 554.218V535.65H574.447V517.509H576.91V504.707H577.572V501.273H579.218V497.749H581.202V494.795H583.289V492.527H585.066V490.83H586.362V478.118H587.789V473.972L589.591 474.179L590.576 439.194L591.575 474.179L593.377 473.972L593.286 478.118H594.803V490.804H596.035V492.501H597.811V494.769H599.86V497.723H601.843V501.247H603.373V504.707H604.242V517.392H606.835V535.714H608.132V604.609H609.493V602.653H611.97V601.007H616.728V568.264L624.443 562.096L640.001 568.264V595.746H642.595V593.842H651.93V596.135H654.316V598.079H657.103V600.502H658.867V641.784H442.339Z" fill="#68E1FD"/>
<path d="M442.339 641.784V608.095H445.658V582.698H448.978V579.394H452.051V577.126L455.02 573.641H467.869L470.838 577.126V579.394H473.561V582.698H476.88L476.789 595.021H479.836V535.766H477.593V534.237H480.977V517.392H482.274V512.119H483.492V507.026H484.698V501.986H485.995V496.946H487.564V491.905H488.86V486.865H490.157V481.824H490.714L491.713 461.857L492.711 481.824H493.294V486.865H494.591V491.905H495.888V496.946H497.456V501.986H498.753V507.026H500.024V512.08H501.32V517.392H502.617V534.237H506.001V535.805H503.758V595.137H505.755V562.031H510.085V557.561H513.093C513.093 557.561 512.613 551.859 523.556 550.68V454.795L534.098 453.499V448.834H539.038V443.535L543.174 443.664L544.937 421.637L546.687 443.664L550.434 443.535V448.899H555.556V453.059L566.278 454.86V550.162H570.829L571.192 553.673L572.917 554.218V535.65H574.447V517.509H576.91V504.707H577.572V501.273H579.218V497.749H581.202V494.795H583.289V492.527H585.066V490.83H586.362V478.118H587.789V473.972L589.591 474.179L590.576 439.194L591.575 474.179L593.377 473.972L593.286 478.118H594.803V490.804H596.035V492.501H597.811V494.769H599.86V497.723H601.843V501.247H603.373V504.707H604.242V517.392H606.835V535.714H608.132V604.609H609.493V602.653H611.97V601.007H616.728V568.264L624.443 562.096L640.001 568.264V595.746H642.595V593.842H651.93V596.135H654.316V598.079H657.103V600.502H658.867V641.784H442.339Z" fill="url(#paint1_linear_1_88)"/>
<path d="M400.525 204.923C400.525 204.923 387.806 222.843 387.559 237.213C387.313 251.583 389.322 255.859 391.838 255.599C394.353 255.34 427.416 223.322 427.416 223.322L400.525 204.923Z" fill="#68E1FD"/>
<path d="M403.546 49.666H388.661V69.2448H403.546V49.666Z" fill="#68E1FD"/>
<path d="M524.659 407.254L525.838 424.889C524.697 425.498 523.997 425.835 523.997 425.835L524.659 407.254Z" fill="#68E1FD"/>
<path d="M435.351 228.596C436.751 226.691 438.346 225.097 440.719 224.994C441.215 224.94 441.692 224.769 442.11 224.494C442.527 224.219 442.872 223.848 443.117 223.413C443.603 222.539 443.949 221.595 444.141 220.614C444.479 219.318 444.699 217.323 445.542 216.364C448.275 218.322 450.874 220.46 453.321 222.765L450.183 246.4C445.205 240.465 440.381 234.479 435.351 228.596Z" fill="#68E1FD"/>
<path d="M493.243 218.645C494.059 219.267 492.996 220.821 493.139 223.581C493.658 234.284 494.254 245.233 498.623 255.185C500.374 259.189 503.965 263.218 498.273 264.994C494.928 266.03 490.637 265.641 487.136 265.888L484.996 234.414V219.629C486.934 219.041 488.915 218.607 490.922 218.334C491.709 218.206 492.517 218.315 493.243 218.645V218.645Z" fill="#68E1FD"/>
<path d="M435.351 228.596C436.751 226.691 438.346 225.097 440.719 224.994C441.215 224.94 441.692 224.769 442.11 224.494C442.527 224.219 442.872 223.848 443.117 223.413C443.603 222.539 443.949 221.595 444.141 220.614C444.479 219.318 444.699 217.323 445.542 216.364C448.275 218.322 450.874 220.46 453.321 222.765L450.183 246.4C445.205 240.465 440.381 234.479 435.351 228.596Z" fill="url(#paint2_linear_1_88)"/>
<path d="M493.243 218.645C494.059 219.267 492.996 220.821 493.139 223.581C493.658 234.284 494.254 245.233 498.623 255.185C500.374 259.189 503.965 263.218 498.273 264.994C494.928 266.03 490.637 265.641 487.136 265.888L484.996 234.414V219.629C486.934 219.041 488.915 218.607 490.922 218.334C491.709 218.206 492.517 218.315 493.243 218.645V218.645Z" fill="url(#paint3_linear_1_88)"/>
<path d="M465.548 176.338L468.452 146.018L471.357 176.338H465.548Z" fill="#68E1FD"/>
<path d="M494.241 197.744L524.581 200.66L494.241 203.562V197.744Z" fill="#68E1FD"/>
<path d="M442.858 197.744L412.518 200.66L442.858 203.562V197.744Z" fill="#68E1FD"/>
<path d="M481.223 179.047L503.978 158.781L485.502 182.986L481.223 179.047Z" fill="#68E1FD"/>
<path d="M491.337 187.469L520.263 177.867L493.683 192.781L491.337 187.469Z" fill="#68E1FD"/>
<path d="M444.582 187.469L415.656 177.867L442.235 192.781L444.582 187.469Z" fill="#68E1FD"/>
<path d="M454.553 179.047L431.798 158.781L450.287 182.986L454.553 179.047Z" fill="#68E1FD"/>
<path d="M399.695 103.686C399.695 103.686 410.068 112.199 410.573 118.691C411.079 125.182 410.69 125.636 410.91 129.057C411.131 132.477 419.312 167.255 420.207 172.296C421.101 177.336 420.998 189.205 422.229 192.911C423.461 196.617 433.328 231.55 433.328 231.55L406.761 240.737C406.761 240.737 404.077 226.238 402.392 216.377C400.706 206.516 398.8 193.637 398.022 189.166C397.244 184.696 394.314 176.624 393.199 167.216C392.084 157.809 392.862 124.457 392.862 124.457L399.695 103.686Z" fill="#68E1FD"/>
<path d="M412.311 136.442C411.507 132.672 411.014 129.964 410.91 129.07C410.69 125.83 411.001 125.299 410.625 119.468C414.126 117.058 410.262 99.3321 409.329 99.8115C408.395 100.291 395.792 116.306 395.17 117.447L393.523 122.435C393.144 124.43 392.893 126.447 392.771 128.473C392.771 130.313 392.694 132.685 392.655 135.367C392.655 138.58 396.194 141.47 399.228 141.47C402.911 141.47 405.711 139.461 408.719 143.206C410.664 145.616 411.183 148.856 411.468 151.939C411.766 155.161 411.895 158.396 411.857 161.632C411.714 164.403 411.714 167.179 411.857 169.95C412.453 176.533 415.332 182.662 416.071 189.218C416.693 194.386 416.645 199.612 415.928 204.767C414.813 212.438 413.335 220.083 411.727 227.65L424.032 199.144C423.137 196.034 422.45 193.714 422.178 192.911C420.946 189.205 421.063 177.362 420.155 172.296C419.533 168.447 414.748 147.806 412.311 136.442Z" fill="url(#paint4_linear_1_88)"/>
<path d="M402.547 121.839H389.66L387.987 83.3037H404.233L402.547 121.839Z" fill="#68E1FD"/>
<path d="M403.079 121.386H389.011V125.13H403.079V121.386Z" fill="#68E1FD"/>
<path d="M399.747 133.047H392.46L389.517 124.819H402.69L399.747 133.047Z" fill="#68E1FD"/>
<path d="M397.296 131.065H394.794C393.82 131.065 393.031 131.854 393.031 132.827V133.268C393.031 134.241 393.82 135.03 394.794 135.03H397.296C398.27 135.03 399.06 134.241 399.06 133.268V132.827C399.06 131.854 398.27 131.065 397.296 131.065Z" fill="#68E1FD"/>
<path d="M405.037 77.9004H387.17C385.974 77.9004 385.005 78.8692 385.005 80.0643V81.2953C385.005 82.4904 385.974 83.4592 387.17 83.4592H405.037C406.233 83.4592 407.202 82.4904 407.202 81.2953V80.0643C407.202 78.8692 406.233 77.9004 405.037 77.9004Z" fill="#68E1FD"/>
<path d="M405.063 81.7488H387.002L375.76 72.7692H416.447L405.063 81.7488Z" fill="#68E1FD"/>
<path d="M416.576 69.2059H375.631V72.7692H416.576V69.2059Z" fill="#68E1FD"/>
<path d="M416.576 57.9848H396.103H375.631L377.316 63.6083L375.631 69.2448H396.103H416.576L414.891 63.6083L416.576 57.9848Z" fill="#68E1FD"/>
<path d="M388.674 49.6272C384.344 42.371 384.266 34.9463 387.728 27.3273C389.608 23.1809 391.98 19.216 393.199 14.8234C394.496 10.0161 394.496 4.94976 394.353 -0.038868C394.211 4.27597 396.635 8.16322 399.449 11.3248C402.262 14.4865 405.543 17.3112 407.773 20.9263C410.755 25.7724 414.256 49.666 403.559 49.666L388.674 49.6272Z" fill="#68E1FD"/>
<path d="M388.674 49.6272C384.344 42.371 384.266 34.9463 387.728 27.3273C389.608 23.1809 391.98 19.216 393.199 14.8234C394.496 10.0161 394.496 4.94976 394.353 -0.038868C394.211 4.27597 396.635 8.16322 399.449 11.3248C402.262 14.4865 405.543 17.3112 407.773 20.9263C410.755 25.7724 414.256 49.666 403.559 49.666L388.674 49.6272Z" fill="url(#paint5_linear_1_88)"/>
<path d="M445.879 211.233C445.879 211.233 441.289 206.853 441.289 196.099C441.289 185.344 453.619 175.937 467.856 175.937C484.776 175.937 495.317 187.145 495.317 197.666C495.317 208.032 491.842 212.231 491.842 212.231C491.842 212.231 446.047 211.388 445.879 211.233Z" fill="#68E1FD"/>
<path d="M446.722 213.047C446.722 213.047 442.274 208.823 442.274 198.392C442.274 187.961 454.216 178.852 468.011 178.852C484.426 178.852 494.63 189.711 494.63 199.921C494.63 209.898 491.259 214.032 491.259 214.032C491.259 214.032 446.864 213.215 446.722 213.047Z" fill="url(#paint6_linear_1_88)"/>
<path d="M451.156 198.794C451.156 198.794 451.597 224.113 453.957 229.71C456.316 235.308 451.156 246.179 451.156 246.179L470.76 269.257L492.063 263.205C492.063 263.205 485.23 257.491 485.113 252.839C484.996 248.188 485.334 234.349 485.904 233.235C486.475 232.12 488.251 219.448 487.577 212.736C486.902 206.024 484.556 195.814 484.556 195.814C484.556 195.814 477.048 189.879 468.53 190.553C460.012 191.227 451.156 198.794 451.156 198.794Z" fill="#68E1FD"/>
<path d="M430.009 219.785C430.009 219.785 444.803 233.934 448.329 238.716C451.856 243.497 463.72 261.145 471.032 264.423C478.345 267.702 488.432 261.145 493.982 262.156C499.531 263.167 512.134 266.95 517.683 278.547C523.232 290.144 547.504 489.495 545.43 492.022C543.355 494.548 537.858 497.308 537.858 500.587C537.858 503.865 540.632 561.331 539.634 562.329C538.636 563.327 533.32 564.856 533.32 565.866C533.32 566.877 538.869 618.033 536.6 618.033H397.595C397.595 618.033 408.94 594.088 410.457 586.78C411.974 579.472 407.682 544.435 409.16 525.037C410.638 505.64 415.474 489.495 415.721 481.435C415.811 478.364 415.293 465.977 414.735 450.946C414.268 438.378 406.061 433.285 405.88 420.937C405.711 409.275 413.529 390.046 414.204 385.407C414.943 380.419 400.732 385.291 400.084 372.8C399.073 353.364 415.643 335.119 416.058 326.697C416.875 306.885 403.403 312.016 401.795 304.255C400.382 297.18 405.944 288.434 406.333 277.044C406.865 262 395.494 249.574 395.494 249.574L430.009 219.785Z" fill="#68E1FD"/>
<path d="M430.009 219.785C430.009 219.785 444.803 233.934 448.329 238.716C451.856 243.497 463.72 261.145 471.032 264.423C478.345 267.702 488.432 261.145 493.982 262.156C499.531 263.167 512.134 266.95 517.683 278.547C523.232 290.144 547.504 489.495 545.43 492.022C543.355 494.548 537.858 497.308 537.858 500.587C537.858 503.865 540.632 561.331 539.634 562.329C538.636 563.327 533.32 564.856 533.32 565.866C533.32 566.877 538.869 618.033 536.6 618.033H397.595C397.595 618.033 408.94 594.088 410.457 586.78C411.974 579.472 407.682 544.435 409.16 525.037C410.638 505.64 415.474 489.495 415.721 481.435C415.811 478.364 415.293 465.977 414.735 450.946C414.268 438.378 406.061 433.285 405.88 420.937C405.711 409.275 413.529 390.046 414.204 385.407C414.943 380.419 400.732 385.291 400.084 372.8C399.073 353.364 415.643 335.119 416.058 326.697C416.875 306.885 403.403 312.016 401.795 304.255C400.382 297.18 405.944 288.434 406.333 277.044C406.865 262 395.494 249.574 395.494 249.574L430.009 219.785Z" fill="url(#paint7_linear_1_88)"/>
<path d="M443.973 210.779C444.232 206.516 445.879 204.962 445.879 204.949C446.242 204.612 446.359 202.836 446.527 202.357C447.262 200.225 448.373 198.241 449.807 196.5C453.528 192.067 458.692 189.085 464.394 188.078C465.544 187.869 466.712 187.769 467.882 187.78C472.601 187.78 477.139 189.529 481.535 191.252C482.74 191.654 483.881 192.23 484.919 192.963C487.483 195.197 489.422 198.059 490.546 201.269C491.246 203.135 491.518 205.065 492.063 206.97C492.283 207.747 495.421 212.153 494.98 215.6C494.539 219.046 487.382 223.374 487.382 223.374L452.569 222.934C452.569 222.934 443.532 218.282 443.973 210.779Z" fill="#68E1FD"/>
<path d="M587.322 325.427C586.233 329.911 583.536 333.746 580.606 337.426L580.891 337.283C581.498 337.896 581.978 338.623 582.304 339.421C582.784 340.639 584.768 344.941 584.573 345.421C584.379 345.9 574.784 365.414 573.176 366.93C571.659 368.226 562.298 370.377 560.548 370.817C560.548 370.195 560.651 369.677 560.69 369.211L560.262 370.856C560.357 370.865 560.453 370.865 560.548 370.856C559.601 380.497 556.658 406.347 551.096 410.558C546.898 413.451 542.539 416.103 538.039 418.501C533.125 421.196 528.393 423.684 525.838 424.98L524.659 407.254L515.997 275.606C516.628 276.543 517.195 277.521 517.696 278.534C518.604 280.426 519.965 287.19 521.676 297.31L545.883 322.447L529.287 349.489C530.286 356.758 531.271 364.326 532.269 371.932L541.345 370.429C549.125 351.42 561.637 334.549 576.197 319.985C578.285 317.86 581.02 315.644 583.86 316.448C584.706 316.733 585.468 317.224 586.079 317.875C586.69 318.526 587.13 319.317 587.361 320.179C587.82 321.9 587.807 323.713 587.322 325.427V325.427Z" fill="#68E1FD"/>
<path d="M557.604 306.289C556.934 306.445 556.283 306.671 555.66 306.963C551.303 308.997 549.306 313.947 546.415 317.795C544.483 320.387 542.059 322.512 539.932 324.883C534.966 330.325 529.184 339.434 528.263 346.703C527.757 350.941 529.145 356.227 529.56 360.464C529.793 362.978 530.571 389.049 532.269 389.515L541.345 392.029C541.603 391.646 541.837 391.248 542.046 390.837L566.304 349.917L580.113 326.593C581.254 324.663 584.145 321.41 584.495 319.208C585.273 314.025 573.734 310.137 569.118 308.22C565.475 306.73 561.339 305.434 557.604 306.289Z" fill="#68E1FD"/>
<path d="M493.437 304.579L482.312 514.023L515.984 495.546L493.437 304.579Z" fill="#68E1FD"/>
<path d="M545.404 492.035C543.42 494.548 537.832 497.334 537.832 500.587C537.832 503.839 540.632 561.331 539.634 562.316C538.636 563.301 533.294 564.908 533.294 565.866C533.294 566.825 538.882 618.046 536.6 618.046H492.517C484.491 618.046 474.105 619.834 466.287 618.046C459.389 616.465 460.556 618.422 461.554 610.557C461.84 608.302 468.206 590.265 465.003 589.073L453.995 585.018C453.169 584.774 452.416 584.329 451.804 583.722C450.093 581.765 452.064 578.824 453.931 577.01C465.518 565.737 476.515 553.874 486.876 541.467C490.909 536.647 498.014 531.192 495.2 524.623C493.191 519.906 482.624 519.647 482.235 513.985C481.937 509.294 529.624 484.066 529.624 484.066L525.735 424.85C528.328 423.554 533.021 421.118 537.935 418.371C542.811 458.151 546.221 490.998 545.404 492.035Z" fill="#68E1FD"/>
<path d="M412.012 500.548C412.012 500.625 418.923 498.863 419.338 498.708C424.628 496.738 430.087 493.317 432.991 488.342C436.751 481.993 439.085 474.633 442.975 468.154C446.996 461.453 451.558 455.092 456.615 449.132C462.306 442.42 468.673 436.175 473.081 428.543C475.901 423.422 478.078 417.973 479.564 412.32C483.028 399.321 485.482 386.073 486.902 372.696C487.11 370.973 490.922 345.485 490.183 345.291C492.089 345.978 489.146 374.342 489.029 376.635C488.082 395.151 487.019 413.681 485.567 432.184C485.1 438.002 484.685 443.846 483.92 449.651C483.765 450.817 483.92 453.538 483.168 454.497C481.094 457.296 474.844 455.546 471.097 458.384C468.091 460.942 465.657 464.103 463.953 467.662C454.099 485.906 449.056 507.026 435.195 522.951C430.359 528.484 425.678 533.563 418.975 527.098C412.272 520.632 411.442 509.138 412.012 500.548Z" fill="#68E1FD"/>
<path d="M423.448 196.876C423.448 196.876 410.301 230.19 405.607 234.453C400.914 238.716 388.104 249.704 390.048 254.861C395.65 269.49 421.516 252.865 428.129 224.1C431.604 209.134 431.513 209.976 423.448 196.876Z" fill="#68E1FD"/>
<path d="M404.233 83.3166L389.024 83.1352C389.024 83.1352 388.726 81.3471 387.974 81.8395C387.334 82.4484 386.849 83.2009 386.558 84.0346C386.267 84.8683 386.179 85.7593 386.301 86.6338C386.807 88.4348 385.186 94.9006 385.122 95.3412C385.031 96.015 385.459 101.055 385.459 101.055C385.459 101.055 389.348 102.001 388.765 103.466C388.182 104.93 385.355 106.433 385.07 106.99C384.784 107.547 389.387 117.356 389.387 117.356C389.387 117.356 389.608 115.062 389.724 113.158C389.841 111.253 393.757 108.338 396.894 109.465C400.032 110.592 403.027 117.797 403.027 117.797L404.233 83.3166Z" fill="#68E1FD"/>
<path d="M405.063 81.7488H387.002L375.76 72.7692H416.447L405.063 81.7488Z" fill="url(#paint8_linear_1_88)"/>
<path d="M404.233 83.3166L389.024 83.1352C389.024 83.1352 388.726 81.3471 387.974 81.8395C387.334 82.4484 386.849 83.2009 386.558 84.0346C386.267 84.8683 386.179 85.7593 386.301 86.6338C386.807 88.4348 385.186 94.9006 385.122 95.3412C385.031 96.015 385.459 101.055 385.459 101.055C385.459 101.055 389.348 102.001 388.765 103.466C388.182 104.93 385.355 106.433 385.07 106.99C384.784 107.547 389.387 117.356 389.387 117.356C389.387 117.356 389.608 115.062 389.724 113.158C389.841 111.253 393.757 108.338 396.894 109.465C400.032 110.592 403.027 117.797 403.027 117.797L404.233 83.3166Z" fill="url(#paint9_linear_1_88)"/>
<path d="M465.276 222.545C464.29 222.739 465.95 220.64 467.622 220.86C469.295 221.081 471.668 220.744 471.331 219.409C470.993 218.074 470.099 208.654 471.888 207.307C473.677 205.959 482.196 207.048 481.859 206.387C481.664 205.998 481.068 205.661 480.744 205.402C479.899 204.832 479.101 204.195 478.358 203.497C477.697 202.785 477.23 201.917 476.634 201.152C475.463 199.709 473.921 198.612 472.173 197.977C471.372 197.657 470.521 197.481 469.658 197.459C468.816 197.55 467.991 197.759 467.207 198.081C466.689 198.222 466.178 198.391 465.678 198.586C464.274 199.145 463.043 200.066 462.112 201.256C461.677 201.884 461.287 202.542 460.945 203.225C460.567 203.663 460.244 204.146 459.986 204.663C459.811 205.07 459.555 205.436 459.234 205.739C458.921 206.096 458.579 206.426 458.209 206.724C457.7 207.064 457.172 207.376 456.627 207.657C456.329 207.825 455.59 208.149 456.005 208.421C456.461 208.532 456.937 208.532 457.392 208.421C459.104 208.33 460.815 208.084 462.579 208.11C463.59 208.11 465.6 208.214 465.652 209.613C465.755 212.529 464.42 213.876 460.712 213.76C457.003 213.643 453.516 214.097 452.932 216.675C452.349 219.254 453.153 226.173 453.153 226.173L452.167 231.913C452.167 231.913 445.451 221.197 445.334 215.988C445.218 210.779 449.017 206.452 452.803 203.186C454.631 201.618 455.901 199.74 457.989 198.444C460.179 197.143 462.572 196.219 465.068 195.71C469.256 194.829 473.716 196.695 477.697 197.977C481.53 199.112 485.288 200.484 488.951 202.085C489.573 202.37 490.922 202.811 491.22 203.523C491.72 204.597 492.023 205.751 492.115 206.931C492.231 207.825 495.2 211.414 495.058 214.433C494.915 217.453 494.008 217.776 494.008 217.776L485.956 233.261C485.956 233.261 484.465 251.531 485.269 253.759C486.073 255.988 502.747 264.786 502.747 264.786C502.747 264.786 490.935 263.128 488.99 262.726C480.326 260.789 472.577 255.969 467.013 249.056C455.577 235.386 454.786 233.261 456.251 233.144C457.192 233.159 458.128 233.285 459.039 233.52C461.204 233.909 463.37 234.323 465.522 234.608C466.585 234.751 467.648 234.867 468.712 234.906C469.237 234.983 469.774 234.932 470.275 234.756C470.777 234.58 471.228 234.284 471.59 233.896C472.886 232.6 474.961 232.405 476.698 231.732C478.177 231.141 479.465 230.155 480.42 228.881C480.947 228.133 481.407 227.339 481.794 226.51C482.495 225.172 483.043 223.759 483.428 222.299C483.81 220.833 483.81 219.294 483.428 217.828C483.342 217.475 483.183 217.144 482.961 216.856C482.731 216.596 482.454 216.38 482.144 216.222C480.602 215.391 478.837 215.069 477.1 215.302C476.241 215.389 475.419 215.697 474.715 216.196C474.365 216.447 474.076 216.775 473.872 217.154C473.667 217.534 473.552 217.955 473.535 218.385C473.614 219.12 473.811 219.838 474.118 220.51C474.338 221.231 474.498 221.967 474.598 222.713L475.052 225.408C475.2 225.779 475.26 226.18 475.228 226.578C475.196 226.976 475.072 227.362 474.866 227.704C474.661 228.047 474.378 228.337 474.042 228.552C473.705 228.768 473.323 228.902 472.925 228.946C472.385 229.147 471.816 229.261 471.24 229.283C471.019 229.283 470.76 229.205 470.695 228.998C470.676 228.908 470.676 228.815 470.695 228.726C470.833 228.244 470.92 227.748 470.955 227.248C470.955 224.774 465.379 226.238 463.94 226.575C465.119 225.76 466.401 225.107 467.752 224.631C468.971 224.45 466.961 222.208 465.276 222.545Z" fill="url(#paint10_linear_1_88)"/>
<path d="M405.102 115.451C405.192 118.431 401.938 108.61 402.509 104.696C403.079 100.783 397.244 93.8252 397.582 90.2489C397.919 86.6726 400.175 86.5431 400.94 86.9966C403.088 88.668 404.912 90.719 406.32 93.0477C407.526 95.2217 408.587 97.4725 409.497 99.7856C409.705 101.017 404.713 102.209 405.102 115.451Z" fill="#68E1FD"/>
<path d="M385.148 95.1986C384.65 94.9752 384.211 94.6386 383.867 94.2156C383.522 93.7927 383.282 93.2951 383.164 92.7626C383.099 91.8569 383.334 90.9549 383.833 90.1961C384.332 89.4373 385.068 88.8638 385.926 88.5644C387.78 88.0591 395.792 88.5644 395.961 90.2489C396.033 90.6873 395.997 91.1365 395.857 91.558C395.716 91.9795 395.476 92.3607 395.156 92.669C394.836 92.9773 394.446 93.2035 394.019 93.3281C393.593 93.4527 393.142 93.4721 392.707 93.3846C386.353 92.9829 385.822 95.2634 385.148 95.1986Z" fill="#68E1FD"/>
<path d="M384.784 95.3412C385.536 94.7063 392.071 95.6781 393.86 96.1834C395.65 96.6888 398.697 97.4144 399.176 98.0234C399.851 98.8656 399.682 100.991 398.736 101.224C394.306 101.447 389.868 101.391 385.446 101.055C384.629 100.719 382.386 97.3626 384.784 95.3412Z" fill="#68E1FD"/>
<path d="M385.355 101.457C385.912 100.861 390.917 101.988 392.408 102.299C393.778 102.468 395.101 102.909 396.298 103.595C396.907 104.269 396.933 106.109 396.168 106.368C392.498 106.801 388.804 106.991 385.109 106.938C384.408 106.757 383.54 103.349 385.355 101.457Z" fill="#68E1FD"/>
<path d="M401.925 368.77C401.018 371.595 401.445 375.352 402.288 378.838C406.061 383.244 413.581 381.805 414.268 384.604C414.268 382.596 414.969 376.311 420.09 360.957C423.409 350.992 444.064 334.601 457.263 321.462C470.112 308.647 475.57 298.955 475.57 298.955C475.57 298.955 470.929 304.903 451.752 319.013C432.576 333.124 404.194 361.708 401.925 368.77Z" fill="#68E1FD"/>
<path d="M454.644 353.441C450.685 362.805 446.553 372.096 442.249 381.313C437.895 391.05 432.798 400.437 427.001 409.392C424.038 413.852 420.708 418.056 417.043 421.961C413.905 425.265 410.301 427.597 408.382 431.731C410.483 436.706 412.687 441.487 414.476 446.58C417.782 444.377 420.22 437.406 422.061 433.778C424.343 429.256 426.456 424.708 428.544 420.043C432.641 410.778 436.44 401.384 440.693 392.184C446.981 378.527 454.229 365.349 460.686 351.783C463.849 345.11 467.078 338.463 469.762 331.582C471.151 328.111 472.354 324.569 473.366 320.97C474.002 318.676 476.335 312.69 475.065 310.604C467.882 317.368 464.394 329.418 460.802 338.346C458.788 343.408 456.736 348.44 454.644 353.441Z" fill="#68E1FD"/>
<path d="M587.322 325.427C586.233 329.911 583.536 333.746 580.606 337.426L580.891 337.283C581.498 337.896 581.978 338.623 582.304 339.421C582.784 340.639 584.768 344.941 584.573 345.421C584.379 345.9 574.784 365.414 573.176 366.93C571.659 368.226 562.298 370.377 560.548 370.817C560.548 370.195 560.651 369.677 560.69 369.211L560.262 370.856C560.357 370.865 560.453 370.865 560.548 370.856C559.601 380.497 556.658 406.347 551.096 410.558C546.898 413.451 542.539 416.103 538.039 418.501C533.125 421.196 528.393 423.684 525.838 424.98L524.659 407.254L515.997 275.606C516.628 276.543 517.195 277.521 517.696 278.534C518.604 280.426 519.965 287.19 521.676 297.31L545.883 322.447L529.287 349.489C530.286 356.758 531.271 364.326 532.269 371.932L541.345 370.429C549.125 351.42 561.637 334.549 576.197 319.985C578.285 317.86 581.02 315.644 583.86 316.448C584.706 316.733 585.468 317.224 586.079 317.875C586.69 318.526 587.13 319.317 587.361 320.179C587.82 321.9 587.807 323.713 587.322 325.427V325.427Z" fill="url(#paint11_linear_1_88)"/>
<path d="M545.404 492.035C543.42 494.548 537.832 497.334 537.832 500.587C537.832 503.839 540.632 561.331 539.634 562.316C538.636 563.301 533.294 564.908 533.294 565.866C533.294 566.825 538.882 618.046 536.6 618.046H492.517C484.478 618.046 474.079 619.847 466.274 618.046C459.363 616.491 460.556 618.422 461.542 610.583C461.827 608.315 468.206 590.252 464.99 589.073L453.982 585.005C453.164 584.784 452.415 584.361 451.804 583.774C450.093 581.791 452.038 578.863 453.931 577.075C465.5 565.788 476.488 553.921 486.851 541.519C490.909 536.699 498.014 531.218 495.175 524.674C493.178 519.945 482.637 519.712 482.209 514.036L493.32 304.643L515.583 491.801C523.531 487.409 529.728 484.092 529.728 484.092L525.838 424.876C528.432 423.58 533.125 421.144 538.039 418.397C542.811 458.151 546.221 490.998 545.404 492.035Z" fill="url(#paint12_linear_1_88)"/>
<path d="M412.012 500.548C412.012 500.625 418.923 498.863 419.338 498.708C424.628 496.738 430.087 493.317 432.991 488.342C436.751 481.993 439.085 474.633 442.975 468.154C446.996 461.453 451.558 455.092 456.615 449.132C462.306 442.42 468.673 436.175 473.081 428.543C475.901 423.422 478.078 417.973 479.564 412.32C483.028 399.321 485.482 386.073 486.902 372.696C487.11 370.973 490.922 345.485 490.183 345.291C492.089 345.978 489.146 374.342 489.029 376.635C488.082 395.151 487.019 413.681 485.567 432.184C485.1 438.002 484.685 443.846 483.92 449.651C483.765 450.817 483.92 453.538 483.168 454.497C481.094 457.296 474.844 455.546 471.097 458.384C468.091 460.942 465.657 464.103 463.953 467.662C454.099 485.906 449.056 507.026 435.195 522.951C430.359 528.484 425.678 533.563 418.975 527.098C412.272 520.632 411.442 509.138 412.012 500.548Z" fill="url(#paint13_linear_1_88)"/>
<path d="M401.925 368.77C401.018 371.595 401.445 375.352 402.288 378.838C406.061 383.244 413.581 381.805 414.268 384.604C414.268 382.596 414.969 376.311 420.09 360.957C423.409 350.992 444.064 334.601 457.263 321.462C470.112 308.647 475.57 298.955 475.57 298.955C475.57 298.955 470.929 304.903 451.752 319.013C432.576 333.124 404.194 361.708 401.925 368.77Z" fill="url(#paint14_linear_1_88)"/>
<path d="M454.644 353.441C450.685 362.805 446.553 372.096 442.249 381.313C437.895 391.05 432.798 400.437 427.001 409.392C424.038 413.852 420.708 418.056 417.043 421.961C413.905 425.265 410.301 427.597 408.382 431.731C410.483 436.706 412.687 441.487 414.476 446.58C417.782 444.377 420.22 437.406 422.061 433.778C424.343 429.256 426.456 424.708 428.544 420.043C432.641 410.778 436.44 401.384 440.693 392.184C446.981 378.527 454.229 365.349 460.686 351.783C463.849 345.11 467.078 338.463 469.762 331.582C471.151 328.111 472.354 324.569 473.366 320.97C474.002 318.676 476.335 312.69 475.065 310.604C467.882 317.368 464.394 329.418 460.802 338.346C458.788 343.408 456.736 348.44 454.644 353.441Z" fill="url(#paint15_linear_1_88)"/>
<path d="M385.29 89.1475C385.29 89.1475 383.19 86.2062 383.527 83.9645C383.864 81.7229 387.559 75.905 388.402 76.0734C389.245 76.2418 390.165 79.2609 389.828 80.8547C389.491 82.4485 388.052 84.9752 388.091 85.8952C388.13 86.8152 388.207 88.4867 388.207 88.4867L385.29 89.1475Z" fill="#68E1FD"/>
<path d="M412.259 274.336C412.898 278.274 412.863 282.292 412.155 286.218C410.288 296.584 411.831 305.395 419.533 313.195C419.878 313.636 420.311 314.001 420.804 314.266C421.297 314.531 421.84 314.692 422.398 314.737C423.225 314.623 423.993 314.246 424.589 313.662C432.913 306.704 433.536 294.355 433.484 283.523C433.484 272.068 433.44 260.618 433.354 249.172C433.354 247.112 436.557 226.199 435.714 225.344C432.524 222.195 430.009 219.785 430.009 219.785C430.009 219.785 431.578 210.715 429.309 207.1C429.309 207.1 428.998 206.4 428.998 206.387C428.998 206.374 423.098 234.129 419.844 241.255C414.774 252.386 405.348 256.105 406.23 257.724C409.176 262.876 411.215 268.495 412.259 274.336V274.336Z" fill="url(#paint16_linear_1_88)"/>
</g>
<defs>
<linearGradient id="paint0_linear_1_88" x1="226.395" y1="444.209" x2="708.022" y2="1021.26" gradientUnits="userSpaceOnUse">
<stop stop-color="#010101" stop-opacity="0"/>
<stop offset="0.95" stop-color="#010101"/>
</linearGradient>
<linearGradient id="paint1_linear_1_88" x1="491.324" y1="510.434" x2="811.558" y2="894.111" gradientUnits="userSpaceOnUse">
<stop stop-color="#010101" stop-opacity="0"/>
<stop offset="0.95" stop-color="#010101"/>
</linearGradient>
<linearGradient id="paint2_linear_1_88" x1="463.357" y1="169.575" x2="400.844" y2="375.867" gradientUnits="userSpaceOnUse">
<stop stop-color="#010101" stop-opacity="0"/>
<stop offset="0.95" stop-color="#010101"/>
</linearGradient>
<linearGradient id="paint3_linear_1_88" x1="510.513" y1="183.854" x2="448" y2="390.159" gradientUnits="userSpaceOnUse">
<stop stop-color="#010101" stop-opacity="0"/>
<stop offset="0.95" stop-color="#010101"/>
</linearGradient>
<linearGradient id="paint4_linear_1_88" x1="451.273" y1="133.073" x2="241.636" y2="290.907" gradientUnits="userSpaceOnUse">
<stop stop-color="#010101" stop-opacity="0"/>
<stop offset="0.95" stop-color="#010101"/>
</linearGradient>
<linearGradient id="paint5_linear_1_88" x1="426.78" y1="2.44897" x2="139.96" y2="242.834" gradientUnits="userSpaceOnUse">
<stop stop-color="#010101" stop-opacity="0"/>
<stop offset="0.95" stop-color="#010101"/>
</linearGradient>
<linearGradient id="paint6_linear_1_88" x1="469.191" y1="170.819" x2="465.643" y2="307.455" gradientUnits="userSpaceOnUse">
<stop stop-color="#010101" stop-opacity="0"/>
<stop offset="0.95" stop-color="#010101"/>
</linearGradient>
<linearGradient id="paint7_linear_1_88" x1="440.965" y1="434.179" x2="708.59" y2="337.59" gradientUnits="userSpaceOnUse">
<stop stop-color="white" stop-opacity="0"/>
<stop offset="0.95" stop-color="white"/>
</linearGradient>
<linearGradient id="paint8_linear_1_88" x1="414.243" y1="55.7431" x2="254.095" y2="206.229" gradientUnits="userSpaceOnUse">
<stop stop-color="#010101" stop-opacity="0"/>
<stop offset="0.95" stop-color="#010101"/>
</linearGradient>
<linearGradient id="paint9_linear_1_88" x1="427.442" y1="69.802" x2="267.294" y2="220.275" gradientUnits="userSpaceOnUse">
<stop stop-color="#010101" stop-opacity="0"/>
<stop offset="0.95" stop-color="#010101"/>
</linearGradient>
<linearGradient id="paint10_linear_1_88" x1="506.74" y1="184.074" x2="381.245" y2="393.524" gradientUnits="userSpaceOnUse">
<stop stop-color="#010101" stop-opacity="0"/>
<stop offset="0.95" stop-color="#010101"/>
</linearGradient>
<linearGradient id="paint11_linear_1_88" x1="558.486" y1="200.828" x2="489.324" y2="1229.98" gradientUnits="userSpaceOnUse">
<stop stop-color="#010101" stop-opacity="0"/>
<stop offset="0.95" stop-color="#010101"/>
</linearGradient>
<linearGradient id="paint12_linear_1_88" x1="491.298" y1="429.774" x2="528.54" y2="988.711" gradientUnits="userSpaceOnUse">
<stop stop-color="#010101" stop-opacity="0"/>
<stop offset="0.95" stop-color="#010101"/>
</linearGradient>
<linearGradient id="paint13_linear_1_88" x1="467.156" y1="194.686" x2="397.993" y2="1223.85" gradientUnits="userSpaceOnUse">
<stop stop-color="#010101" stop-opacity="0"/>
<stop offset="0.95" stop-color="#010101"/>
</linearGradient>
<linearGradient id="paint14_linear_1_88" x1="448.057" y1="193.403" x2="378.895" y2="1222.57" gradientUnits="userSpaceOnUse">
<stop stop-color="#010101" stop-opacity="0"/>
<stop offset="0.95" stop-color="#010101"/>
</linearGradient>
<linearGradient id="paint15_linear_1_88" x1="453.879" y1="193.792" x2="384.729" y2="1222.96" gradientUnits="userSpaceOnUse">
<stop stop-color="#010101" stop-opacity="0"/>
<stop offset="0.95" stop-color="#010101"/>
</linearGradient>
<linearGradient id="paint16_linear_1_88" x1="382.321" y1="225.046" x2="674.235" y2="467.429" gradientUnits="userSpaceOnUse">
<stop stop-color="#010101" stop-opacity="0"/>
<stop offset="0.95" stop-color="#010101"/>
</linearGradient>
<clipPath id="clip0_1_88">
<rect width="855" height="644" fill="white"/>
</clipPath>
</defs>
</svg>
